# xmcd
#
# Track frame offsets:
#	225
#	17499
#	29080
#	50541
#	66777
#	81301
#	93542
#	113632
#	124080
#	144628
#	156753
#	176768
#	183096
#	206216
#	219824
#	233291
#	246492
#	256671
#
# Disc length: 3675 seconds
#
# Revision: 3
# Processed by: cddbd v1.5.1PL2 Copyright (c) Steve Scherf et al.
# Submitted via: audiograbber 1.83.01
#
DISCID=f60e5812
DTITLE=Various Artist - John Denver And Friends [CD2]
DYEAR=1900
DGENRE=Country
TTITLE0=John Denver - Calypso
TTITLE1=Johnny Cash - These Hands
TTITLE2=John Denver - The Gift You Are
TTITLE3=Johnny Cash - A Boy Named Sue
TTITLE4=John Denver - Homegrown Tomatoes
TTITLE5=Willie Nelson - Seven Spanish Angels
TTITLE6=John Denver - Ponies
TTITLE7=Wanda Jackson - It's Only Make Believe
TTITLE8=John Denver - All This Joy
TTITLE9=Billy Joe Spears - Misty Blue
TTITLE10=John Denver - Chained To The Wheel
TTITLE11=Brenda Lee - I'll Fly Away
TTITLE12=John Denver - Sunshine On My Shoulder
TTITLE13=Kenny Rogers - Ruby Don't Take Your Love To Town
TTITLE14=Billy Jo Spears - Fever
TTITLE15=John Denver - Rocky Mountain High
TTITLE16=Merle Haggard - Mama Tried
TTITLE17=Brenda Lee - Saved
EXTD=
EXTT0=
EXTT1=
EXTT2=
EXTT3=
EXTT4=
EXTT5=
EXTT6=
EXTT7=
EXTT8=
EXTT9=
EXTT10=
EXTT11=
EXTT12=
EXTT13=
EXTT14=
EXTT15=
EXTT16=
EXTT17=
PLAYORDER=
